ffmpeg version 6.1.1-3ubuntu5 Copyright (c) 2000-2023 the FFmpeg developers
  built with gcc 13 (Ubuntu 13.2.0-23ubuntu3)
  configuration: --prefix=/usr --extra-version=3ubuntu5 --toolchain=hardened --libdir=/usr/lib/x86_64-linux-gnu --incdir=/usr/include/x86_64-linux-gnu --arch=amd64 --enable-gpl --disable-stripping --disable-omx --enable-gnutls --enable-libaom --enable-libass --enable-libbs2b --enable-libcaca --enable-libcdio --enable-libcodec2 --enable-libdav1d --enable-libflite --enable-libfontconfig --enable-libfreetype --enable-libfribidi --enable-libglslang --enable-libgme --enable-libgsm --enable-libharfbuzz --enable-libmp3lame --enable-libmysofa --enable-libopenjpeg --enable-libopenmpt --enable-libopus --enable-librubberband --enable-libshine --enable-libsnappy --enable-libsoxr --enable-libspeex --enable-libtheora --enable-libtwolame --enable-libvidstab --enable-libvorbis --enable-libvpx --enable-libwebp --enable-libx265 --enable-libxml2 --enable-libxvid --enable-libzimg --enable-openal --enable-opencl --enable-opengl --disable-sndio --enable-libvpl --disable-libmfx --enable-libdc1394 --enable-libdrm --enable-libiec61883 --enable-chromaprint --enable-frei0r --enable-ladspa --enable-libbluray --enable-libjack --enable-libpulse --enable-librabbitmq --enable-librist --enable-libsrt --enable-libssh --enable-libsvtav1 --enable-libx264 --enable-libzmq --enable-libzvbi --enable-lv2 --enable-sdl2 --enable-libplacebo --enable-librav1e --enable-pocketsphinx --enable-librsvg --enable-libjxl --enable-shared
  libavutil      58. 29.100 / 58. 29.100
  libavcodec     60. 31.102 / 60. 31.102
  libavformat    60. 16.100 / 60. 16.100
  libavdevice    60.  3.100 / 60.  3.100
  libavfilter     9. 12.100 /  9. 12.100
  libswscale      7.  5.100 /  7.  5.100
  libswresample   4. 12.100 /  4. 12.100
  libpostproc    57.  3.100 / 57.  3.100
[x11grab @ 0x5566c8e6e5c0] Stream #0: not enough frames to estimate rate; consider increasing probesize
Input #0, x11grab, from ':1':
  Duration: N/A, start: 1781379820.661346, bitrate: 442368 kb/s
  Stream #0:0: Video: rawvideo (BGR[0] / 0x524742), bgr0, 1280x720, 442368 kb/s, 15 fps, 1000k tbr, 1000k tbn
Stream mapping:
  Stream #0:0 -> #0:0 (rawvideo (native) -> h264 (libx264))
Press [q] to stop, [?] for help
[libx264 @ 0x5566c8e77300] using cpu capabilities: MMX2 SSE2Fast SSSE3 SSE4.2 AVX FMA3 BMI2 AVX2 AVX512
[libx264 @ 0x5566c8e77300] profile High, level 3.1, 4:2:0, 8-bit
[libx264 @ 0x5566c8e77300] 264 - core 164 r3108 31e19f9 - H.264/MPEG-4 AVC codec - Copyleft 2003-2023 - http://www.videolan.org/x264.html - options: cabac=1 ref=3 deblock=1:0:0 analyse=0x3:0x113 me=hex subme=7 psy=1 psy_rd=1.00:0.00 mixed_ref=1 me_range=16 chroma_me=1 trellis=1 8x8dct=1 cqm=0 deadzone=21,11 fast_pskip=1 chroma_qp_offset=-2 threads=6 lookahead_threads=1 sliced_threads=0 nr=0 decimate=1 interlaced=0 bluray_compat=0 constrained_intra=0 bframes=3 b_pyramid=2 b_adapt=1 b_bias=0 direct=1 weightb=1 open_gop=0 weightp=2 keyint=250 keyint_min=15 scenecut=40 intra_refresh=0 rc_lookahead=40 rc=crf mbtree=1 crf=32.0 qcomp=0.60 qpmin=0 qpmax=69 qpstep=4 ip_ratio=1.40 aq=1:1.00
Output #0, mp4, to '/workspace/challenges/adaptive-memory-testing/attempts/2026-06-13-18-52/evidence/participant.mp4':
  Metadata:
    encoder         : Lavf60.16.100
  Stream #0:0: Video: h264 (avc1 / 0x31637661), yuv420p(tv, progressive), 1280x720, q=2-31, 15 fps, 15360 tbn
    Metadata:
      encoder         : Lavc60.31.102 libx264
    Side data:
      cpb: bitrate max/min/avg: 0/0/0 buffer size: 0 vbv_delay: N/A
frame=    0 fps=0.0 q=0.0 size=       0kB time=N/A bitrate=N/A speed=N/A    frame=    0 fps=0.0 q=0.0 size=       0kB time=N/A bitrate=N/A speed=N/A    frame=    0 fps=0.0 q=0.0 size=       0kB time=N/A bitrate=N/A speed=N/A    frame=    0 fps=0.0 q=0.0 size=       0kB time=N/A bitrate=N/A speed=N/A    frame=    0 fps=0.0 q=0.0 size=       0kB time=N/A bitrate=N/A speed=N/A    frame=    0 fps=0.0 q=0.0 size=       0kB time=N/A bitrate=N/A speed=N/A    frame=    0 fps=0.0 q=0.0 size=       0kB time=N/A bitrate=N/A speed=N/A    frame=    7 fps=1.9 q=36.0 size=       0kB time=00:00:00.33 bitrate=   1.2kbits/s speed=0.0896x    frame=   15 fps=3.5 q=36.0 size=       0kB time=00:00:00.86 bitrate=   0.4kbits/s speed=0.204x    frame=   23 fps=4.8 q=36.0 size=       0kB time=00:00:01.40 bitrate=   0.3kbits/s speed=0.292x    frame=   31 fps=5.8 q=36.0 size=       0kB time=00:00:01.93 bitrate=   0.2kbits/s speed=0.363x    frame=   39 fps=6.7 q=36.0 size=       0kB time=00:00:02.46 bitrate=   0.2kbits/s speed=0.421x    frame=   47 fps=7.4 q=36.0 size=       0kB time=00:00:03.00 bitrate=   0.1kbits/s speed=0.47x    frame=   55 fps=7.9 q=36.0 size=       0kB time=00:00:03.53 bitrate=   0.1kbits/s speed=0.511x    frame=   63 fps=8.5 q=36.0 size=       0kB time=00:00:04.06 bitrate=   0.1kbits/s speed=0.546x    frame=   71 fps=8.9 q=36.0 size=       0kB time=00:00:04.60 bitrate=   0.1kbits/s speed=0.576x    frame=   79 fps=9.3 q=36.0 size=       0kB time=00:00:05.13 bitrate=   0.1kbits/s speed=0.602x    frame=   87 fps=9.6 q=36.0 size=       0kB time=00:00:05.66 bitrate=   0.1kbits/s speed=0.626x    frame=   95 fps=9.9 q=36.0 size=       0kB time=00:00:06.20 bitrate=   0.1kbits/s speed=0.646x    frame=  103 fps= 10 q=36.0 size=       0kB time=00:00:06.73 bitrate=   0.1kbits/s speed=0.665x    frame=  111 fps= 10 q=36.0 size=       0kB time=00:00:07.26 bitrate=   0.1kbits/s speed=0.682x    frame=  119 fps= 11 q=36.0 size=       0kB time=00:00:07.80 bitrate=   0.0kbits/s speed=0.697x    frame=  127 fps= 11 q=36.0 size=       0kB time=00:00:08.33 bitrate=   0.0kbits/s speed=0.711x    frame=  136 fps= 11 q=36.0 size=     256kB time=00:00:08.86 bitrate= 236.6kbits/s speed=0.724x    frame=  143 fps= 11 q=36.0 size=     256kB time=00:00:09.40 bitrate= 223.1kbits/s speed=0.735x    frame=  151 fps= 11 q=36.0 size=     256kB time=00:00:09.93 bitrate= 211.2kbits/s speed=0.746x    frame=  159 fps= 11 q=36.0 size=     256kB time=00:00:10.46 bitrate= 200.4kbits/s speed=0.755x    frame=  167 fps= 12 q=36.0 size=     256kB time=00:00:11.00 bitrate= 190.7kbits/s speed=0.765x    frame=  175 fps= 12 q=36.0 size=     256kB time=00:00:11.53 bitrate= 181.9kbits/s speed=0.773x    frame=  183 fps= 12 q=36.0 size=     256kB time=00:00:12.06 bitrate= 173.8kbits/s speed=0.781x    frame=  191 fps= 12 q=36.0 size=     256kB time=00:00:12.60 bitrate= 166.5kbits/s speed=0.788x    frame=  199 fps= 12 q=36.0 size=     256kB time=00:00:13.13 bitrate= 159.7kbits/s speed=0.795x    frame=  207 fps= 12 q=36.0 size=     256kB time=00:00:13.66 bitrate= 153.5kbits/s speed=0.801x    frame=  215 fps= 12 q=36.0 size=     256kB time=00:00:14.20 bitrate= 147.7kbits/s speed=0.807x    frame=  223 fps= 12 q=36.0 size=     256kB time=00:00:14.73 bitrate= 142.4kbits/s speed=0.813x    frame=  231 fps= 12 q=36.0 size=     256kB time=00:00:15.26 bitrate= 137.4kbits/s speed=0.818x    frame=  239 fps= 12 q=36.0 size=     256kB time=00:00:15.80 bitrate= 132.8kbits/s speed=0.823x    frame=  247 fps= 13 q=36.0 size=     256kB time=00:00:16.33 bitrate= 128.4kbits/s speed=0.828x    frame=  255 fps= 13 q=36.0 size=     256kB time=00:00:16.86 bitrate= 124.4kbits/s speed=0.833x    frame=  263 fps= 13 q=36.0 size=     256kB time=00:00:17.40 bitrate= 120.5kbits/s speed=0.837x    frame=  271 fps= 13 q=36.0 size=     256kB time=00:00:17.93 bitrate= 117.0kbits/s speed=0.841x    frame=  279 fps= 13 q=36.0 size=     256kB time=00:00:18.46 bitrate= 113.6kbits/s speed=0.845x    frame=  287 fps= 13 q=36.0 size=     256kB time=00:00:19.00 bitrate= 110.4kbits/s speed=0.849x    frame=  295 fps= 13 q=36.0 size=     256kB time=00:00:19.53 bitrate= 107.4kbits/s speed=0.852x    frame=  303 fps= 13 q=36.0 size=     256kB time=00:00:20.06 bitrate= 104.5kbits/s speed=0.856x    frame=  311 fps= 13 q=36.0 size=     256kB time=00:00:20.60 bitrate= 101.8kbits/s speed=0.859x    frame=  319 fps= 13 q=36.0 size=     256kB time=00:00:21.13 bitrate=  99.3kbits/s speed=0.862x    frame=  327 fps= 13 q=36.0 size=     256kB time=00:00:21.66 bitrate=  96.8kbits/s speed=0.865x    frame=  335 fps= 13 q=36.0 size=     256kB time=00:00:22.20 bitrate=  94.5kbits/s speed=0.868x    frame=  343 fps= 13 q=36.0 size=     256kB time=00:00:22.73 bitrate=  92.3kbits/s speed=0.87x    frame=  351 fps= 13 q=36.0 size=     256kB time=00:00:23.26 bitrate=  90.2kbits/s speed=0.873x    [mp4 @ 0x5566c8e767c0] Starting second pass: moving the moov atom to the beginning of the file
[out#0/mp4 @ 0x5566c8e75b40] video:395kB audio:0kB subtitle:0kB other streams:0kB global headers:0kB muxing overhead: 1.380984%
frame=  406 fps= 15 q=-1.0 Lsize=     401kB time=00:00:26.86 bitrate= 122.2kbits/s speed=0.992x    
[libx264 @ 0x5566c8e77300] frame I:3     Avg QP:24.28  size: 78429
[libx264 @ 0x5566c8e77300] frame P:125   Avg QP:30.82  size:  1088
[libx264 @ 0x5566c8e77300] frame B:278   Avg QP:37.52  size:   118
[libx264 @ 0x5566c8e77300] consecutive B-frames:  4.9%  8.4%  8.9% 77.8%
[libx264 @ 0x5566c8e77300] mb I  I16..4: 30.6% 55.4% 14.0%
[libx264 @ 0x5566c8e77300] mb P  I16..4:  2.0%  2.4%  0.6%  P16..4:  0.8%  0.2%  0.1%  0.0%  0.0%    skip:93.9%
[libx264 @ 0x5566c8e77300] mb B  I16..4:  0.1%  0.1%  0.0%  B16..8:  2.1%  0.1%  0.0%  direct: 0.0%  skip:97.7%  L0:57.6% L1:42.3% BI: 0.1%
[libx264 @ 0x5566c8e77300] 8x8 transform intra:50.4% inter:43.3%
[libx264 @ 0x5566c8e77300] coded y,uvDC,uvAC intra: 18.3% 18.7% 8.7% inter: 0.1% 0.1% 0.0%
[libx264 @ 0x5566c8e77300] i16 v,h,dc,p: 33% 61%  1%  5%
[libx264 @ 0x5566c8e77300] i8 v,h,dc,ddl,ddr,vr,hd,vl,hu: 38%  7% 49%  1%  1%  1%  1%  1%  1%
[libx264 @ 0x5566c8e77300] i4 v,h,dc,ddl,ddr,vr,hd,vl,hu: 29% 21% 28%  3%  4%  4%  4%  4%  4%
[libx264 @ 0x5566c8e77300] i8c dc,h,v,p: 70% 24%  6%  1%
[libx264 @ 0x5566c8e77300] Weighted P-Frames: Y:0.0% UV:0.0%
[libx264 @ 0x5566c8e77300] ref P L0: 62.4%  5.8% 24.8%  7.0%
[libx264 @ 0x5566c8e77300] ref B L0: 64.6% 29.8%  5.5%
[libx264 @ 0x5566c8e77300] ref B L1: 95.0%  5.0%
[libx264 @ 0x5566c8e77300] kb/s:119.39
Exiting normally, received signal 2.
